<svg width="600" height="300" xmlns="http://www.w3.org/2000/svg">
  <rect width="600" height="300" fill="#1a1a3a" />
  <g>
    <!-- Bar Chart -->
    <rect x="100" y="100" width="30" height="100" fill="#4169e1" />
    <rect x="140" y="130" width="30" height="70" fill="#4169e1" />
    <rect x="180" y="80" width="30" height="120" fill="#4169e1" />
    <rect x="220" y="150" width="30" height="50" fill="#4169e1" />
    
    <!-- Pie Chart -->
    <path  />
    <rect x="220" y="150" width="30" height="50" fill="#4169e1" />
    
    <!-- Pie Chart -->
    <path d="M400,150 L450,150 A50,50 0 0,1 425,193 z" fill="#ff6347" />
    <path d="M400,150 L425,193 A50,50 0 0,1 375,193 z" fill="#32cd32" />
    <path d="M400,150 L375,193 A50,50 0 0,1 350,150 z" fill="#ffd700" />
    <path d="M400,150 L350,150 A50,50 0 0,1 400,100 z" fill="#4169e1" />
    <path d="M400,150 L400,100 A50,50 0 0,1 450,150 z" fill="#9932cc" />
  </g>
  <text x="300" y="60" font-family="Arial" font-size="24" fill="#ffffff" text-anchor="middle">Data Visualization Dashboard</text>
  <text x="300" y="240" font-family="Arial" font-size="16" fill="#a0a0a0" text-anchor="middle">Interactive Charts and Graphs</text>
</svg>

