<svg width="600" height="300" xmlns="http://www.w3.org/2000/svg">
  <rect width="600" height="300" fill="#1a1a3a" />
  <g fill="none" stroke="#4169e1" stroke-width="2">
    <path d="M100,200 L500,200" />
    <path d="M150,200 L150,150 L200,100 L250,180 L300,120 L350,160 L400,90 L450,140" stroke="#ff6347" />
    <path d="M150,200 L150,170 L200,150 L250,190 L300,160 L350,180 L400,140 L450,170" stroke="#4169e1" />
  </g>
  <g fill="#e0e0e0">
    <circle cx="150" cy="200" r="5" />
    <circle cx="200" cy="200" r="5" />
    <circle cx="250" cy="200" r="5" />
    <circle cx="300" cy="200" r="5" />
    <circle cx="350" cy="200" r="5" />
    <circle cx="400" cy="200" r="5" />
    <circle cx="450" cy="200" r="5" />
  </g>
  <text x="300" y="80" font-family="Arial" font-size="24" fill="#ffffff" text-anchor="middle">Predictive Maintenance System</text>
  <text x="300" y="240" font-family="Arial" font-size="16" fill="#a0a0a0" text-anchor="middle">Time Series Analysis for Failure Prediction</text>
</svg>

